<?xml version="1.0" encoding="UTF-8" standalone="no"?>
<!-- Created with Inkscape (http://www.inkscape.org/) -->

<svg
   xmlns:dc="http://purl.org/dc/elements/1.1/"
   xmlns:cc="http://creativecommons.org/ns#"
   xmlns:rdf="http://www.w3.org/1999/02/22-rdf-syntax-ns#"
   xmlns:svg="http://www.w3.org/2000/svg"
   xmlns="http://www.w3.org/2000/svg"
   xmlns:sodipodi="http://sodipodi.sourceforge.net/DTD/sodipodi-0.dtd"
   xmlns:inkscape="http://www.inkscape.org/namespaces/inkscape"
   width="500"
   height="500"
   viewBox="0 0 500.00001 500.00001"
   id="svg2"
   version="1.1"
   inkscape:version="0.91 r13725"
   sodipodi:docname="techlogo.svg"
   inkscape:export-filename="C:\Users\Agnes\Documents\Programming\sympo\drawing.png"
   inkscape:export-xdpi="90"
   inkscape:export-ydpi="90">
  <defs
     id="defs4" />
  <sodipodi:namedview
     id="base"
     pagecolor="#ffffff"
     bordercolor="#666666"
     borderopacity="1.0"
     inkscape:pageopacity="0.0"
     inkscape:pageshadow="2"
     inkscape:zoom="1.1432274"
     inkscape:cx="307.16966"
     inkscape:cy="236.43332"
     inkscape:document-units="px"
     inkscape:current-layer="layer1"
     showgrid="true"
     inkscape:window-width="1366"
     inkscape:window-height="745"
     inkscape:window-x="-8"
     inkscape:window-y="-8"
     inkscape:window-maximized="1"
     units="px"
     inkscape:snap-grids="true">
    <inkscape:grid
       type="xygrid"
       id="grid4157" />
  </sodipodi:namedview>
  <metadata
     id="metadata7">
    <rdf:RDF>
      <cc:Work
         rdf:about="">
        <dc:format>image/svg+xml</dc:format>
        <dc:type
           rdf:resource="http://purl.org/dc/dcmitype/StillImage" />
        <dc:title></dc:title>
      </cc:Work>
    </rdf:RDF>
  </metadata>
  <g
     inkscape:label="Layer 1"
     inkscape:groupmode="layer"
     id="layer1"
     transform="translate(0,-552.36214)">
    <circle
       style="fill:#c7c7c7;fill-opacity:1;fill-rule:evenodd;stroke:none;stroke-width:0.82082659px;stroke-linecap:butt;stroke-linejoin:miter;stroke-opacity:1;opacity:0.767"
       id="path3336"
       cx="249.74034"
       cy="801.22021"
       inkscape:export-filename="C:\Users\Agnes\Documents\Programming\sympo\drawing.png"
       inkscape:export-xdpi="90"
       inkscape:export-ydpi="90"
       r="245.08949" />
    <ellipse
       ry="224.63063"
       rx="224.63062"
       cy="385.06323"
       cx="384.24741"
       id="ellipse3338"
       style="fill:#deaa87;fill-opacity:0;fill-rule:evenodd;stroke:#e2e2da;stroke-width:0.73900002;stroke-linecap:butt;stroke-linejoin:miter;stroke-miterlimit:4;stroke-dasharray:none;stroke-opacity:0" />
    <path
       style="fill:none;fill-opacity:0.94117647;fill-rule:evenodd;stroke:#1b2965;stroke-width:7;stroke-linecap:butt;stroke-linejoin:miter;stroke-miterlimit:4;stroke-dasharray:none;stroke-opacity:0.94117647"
       d="M 252.53084,571.54687 A 228.59359,228.59082 0 0 0 22.471252,781.75923 228.59359,228.59082 0 0 0 231.95839,1027.9783 228.59359,228.59082 0 0 0 478.17977,818.49341 228.59359,228.59082 0 0 0 268.69462,572.27436 228.59359,228.59082 0 0 0 252.53084,571.54687 Z"
       id="ellipse4142"
       inkscape:connector-curvature="0" />
    <path
       id="path4147"
       d="M 252.04398,590.42601 A 208.59643,208.60192 0 0 0 42.109811,782.25657 208.59643,208.60192 0 0 0 233.2712,1006.9452 208.59643,208.60192 0 0 0 457.95335,815.77857 208.59643,208.60192 0 0 0 266.79378,591.08988 a 208.59643,208.60192 0 0 0 -14.7498,-0.66387 z"
       style="fill:none;fill-opacity:0.94117647;fill-rule:evenodd;stroke:#299547;stroke-width:4;stroke-linecap:butt;stroke-linejoin:miter;stroke-miterlimit:4;stroke-dasharray:4,4;stroke-dashoffset:0;stroke-opacity:0.94117647"
       inkscape:connector-curvature="0" />
    <flowRoot
       xml:space="preserve"
       id="flowRoot4159"
       style="font-style:normal;font-weight:normal;font-size:40px;line-height:125%;font-family:sans-serif;letter-spacing:0px;word-spacing:0px;fill:#000000;fill-opacity:1;stroke:none;stroke-width:1px;stroke-linecap:butt;stroke-linejoin:miter;stroke-opacity:1"><flowRegion
         id="flowRegion4161"><rect
           id="rect4163"
           width="280"
           height="90"
           x="110"
           y="122.36221" /></flowRegion><flowPara
         id="flowPara4165" /></flowRoot>    <path
       style="font-style:normal;font-weight:normal;font-size:40px;line-height:125%;font-family:sans-serif;letter-spacing:0px;word-spacing:0px;fill:#1e274e;fill-opacity:0.99607843;stroke:none;stroke-width:1px;stroke-linecap:butt;stroke-linejoin:miter;stroke-opacity:0.94117647"
       d="m 284.73059,664.4813 0,64.69706 3.08987,0 0,-64.69706 -3.08987,0 z m 5.20724,0 0,31.33696 18.7953,0 0,-31.33696 -3.17604,0 0,28.26547 -12.53185,0 0,-28.26547 -3.08741,0 z m 20.82402,0 0,64.69706 3.17852,0 0,-64.69706 -3.17852,0 z m -136.35082,0.0858 0,3.16211 36.79534,0 0,-3.16211 -36.79534,0 z m 41.55449,0 0,64.69706 26.91513,0 0,-3.07148 -23.82526,0 0,-58.46347 23.82526,0 0,-3.16211 -26.91513,0 z m 48.18725,0 c -3.17664,0 -5.55813,0.70238 -7.49941,1.66801 -1.94128,1.05341 -3.26408,2.37116 -4.23472,3.51236 -2.47072,3.07246 -3.70785,7.54987 -3.70785,13.25587 l 0,27.82703 c 0,5.79379 1.23713,10.1834 3.70785,13.25587 0.97064,1.1412 2.29344,2.45855 4.23472,3.42418 1.94128,1.05342 4.32277,1.75374 7.49941,1.75374 6.35327,0 9.79493,-2.80774 11.64797,-5.17792 2.55896,-3.16025 3.79401,-7.54987 3.79401,-13.25587 l 0,-4.21288 -3.17604,0 0,4.21288 c 0,6.32049 -1.67498,10.27011 -4.05746,12.46473 -2.38248,2.19461 -5.3848,2.89758 -8.20848,2.89758 -2.82368,0 -5.9097,-0.70297 -8.29218,-2.89758 -2.38248,-2.19462 -4.05992,-6.14424 -4.05993,-12.46473 l 0,-27.82703 c 1e-5,-4.91593 1.05789,-8.69018 3.08741,-11.41151 2.11776,-2.54575 5.20566,-3.86262 9.2647,-3.86262 8.11807,0 12.26594,5.1789 12.26594,15.27413 l 0,4.1247 3.17604,0 0,-4.1247 c 0,-5.706 -1.23505,-10.09563 -3.79401,-13.25587 -1.85304,-2.37019 -5.2947,-5.18037 -11.64797,-5.18037 z m -89.74174,5.18037 0,3.15967 14.20603,0 0,56.35702 3.1785,0 0,-59.51669 -17.38453,0 z m 19.41327,0 0,59.51669 3.17604,0 0,-56.35702 14.20603,0 0,-3.15967 -17.38207,0 z m 27.34845,0 0,26.15903 21.7079,0 0,-3.15966 -18.62048,0 0,-19.8397 18.62048,0 0,-3.15967 -21.7079,0 z m 42.98002,0 c -6.79447,0 -10.23474,4.38963 -10.23474,13.25587 l 0,27.82703 c 0,8.86625 3.44027,13.25587 10.23474,13.25587 6.79447,0 10.23721,-4.38962 10.23721,-13.25587 l 0,-4.21288 -3.17604,0 0,4.21288 c 0,3.77474 -0.61896,6.49576 -1.94256,8.16368 -0.70592,0.96563 -1.94197,2.01826 -5.11861,2.01826 -3.17664,0 -4.49846,-1.05263 -5.11614,-2.01826 -1.3236,-1.66791 -2.03119,-4.38894 -2.03119,-8.16368 l 0,-27.82703 c 0,-5.00372 1.14908,-7.63766 2.64916,-8.86664 1.50008,-1.22899 3.17457,-1.22956 4.49817,-1.22956 1.14712,0 3.00056,5.7e-4 4.50064,1.22956 1.41184,1.22898 2.56053,3.86292 2.56053,8.86664 l 0,4.1247 3.17604,0 0,-4.1247 c 0,-8.86624 -3.44274,-13.25587 -10.23721,-13.25587 z m -42.98002,28.17974 0,26.15903 21.7079,0 0,-3.07393 -18.62048,0 0,-19.92544 18.62048,0 0,-3.15966 -21.7079,0 z m 68.76508,0 0,31.25122 3.08741,0 0,-28.17973 12.53185,0 0,28.17973 3.17604,0 0,-31.25122 -18.7953,0 z m 3.15142,76.19674 0,64.69706 3.08988,0 0,-61.53741 1.85393,0 21.08746,52.05598 0,-55.21563 -3.17605,0 0,39.15036 -15.88269,-39.15036 -6.97253,0 z m 28.06246,0 0,61.53739 -1.76529,0 -21.08993,-52.05841 0,55.21808 3.08742,0 0,-39.15282 15.88514,39.15282 7.0587,0 0,-64.69706 -3.17604,0 z m -222.01789,0.1739 c -3.176632,0 -5.558132,0.70237 -7.499412,1.66801 -1.94127,1.05341 -3.26408,2.37116 -4.23472,3.51236 -2.47071,3.07246 -3.70785,7.54987 -3.70785,13.25587 l 0,27.82703 c 0,5.79378 1.23714,10.1834 3.70785,13.25586 0.97064,1.1412 2.29345,2.45856 4.23472,3.42419 1.94128,1.05342 4.32278,1.75374 7.499412,1.75374 6.35327,0 9.79492,-2.80774 11.64796,-5.17793 2.55896,-3.16024 3.79402,-7.54986 3.79402,-13.25586 l 0,-4.21288 -3.17604,0 0,4.21288 c 0,6.32049 -1.67498,10.27011 -4.05746,12.46472 -2.38248,2.19462 -5.3848,2.89759 -8.20848,2.89759 -2.82367,0 -5.909692,-0.70297 -8.292192,-2.89759 -2.38245,-2.19461 -4.05992,-6.14423 -4.05992,-12.46472 l 0,-27.82703 c 0,-4.91593 1.0579,-8.69018 3.08741,-11.41151 2.11776,-2.54575 5.20567,-3.86262 9.264702,-3.86262 8.11807,0 12.26594,5.1789 12.26594,15.27413 l 0,4.1247 3.17604,0 0,-4.1247 c 0,-5.706 -1.23506,-10.09563 -3.79402,-13.25587 -1.85304,-2.37019 -5.29469,-5.18037 -11.64796,-5.18037 z m 20.57782,0 0,3.16211 13.50189,0 c 9.26519,0 13.41325,4.82777 13.41325,15.27413 0,7.81283 -2.4718,12.63951 -7.41324,14.48298 1.41184,0.61449 2.64651,1.40535 3.70539,2.37098 2.55897,2.54575 3.79648,5.96866 3.79648,10.2701 l 0,19.13676 3.17606,0 0,-19.13676 c 0,-5.35486 -1.76471,-9.56862 -4.94135,-12.64108 0.17648,-0.0878 0.35287,-0.26286 0.52935,-0.43842 0.0882,-0.17557 0.26383,-0.35065 0.35207,-0.43843 2.55895,-3.07246 3.88265,-7.63677 3.88265,-13.60613 0,-12.02649 -5.29419,-18.43624 -16.50066,-18.43624 l -13.50189,0 z m 36.88152,0 0,64.69706 26.91514,0 0,-3.07148 -23.82527,0 0,-58.46347 23.82527,0 0,-3.16211 -26.91514,0 z m 48.2759,0 c -4.58848,0 -8.46937,1.93195 -11.2048,5.09219 -2.82368,3.24803 -4.32583,7.9018 -4.32583,13.43223 0,5.26707 1.76629,9.56773 5.29588,12.99133 2.82368,2.72132 6.0009,4.0376 7.85393,4.82766 l 1.58803,0.70297 c 1.85304,0.79006 3.88197,1.7551 5.38204,3.15965 1.50008,1.49234 2.55808,3.51139 2.55808,6.58385 0,1.75569 -0.17668,4.21415 -1.14732,6.14541 -1.05888,1.93126 -2.82338,3.50992 -6.00001,3.50992 -1.67656,0 -2.82259,-0.26159 -3.61675,-0.70051 -0.79416,-0.43893 -1.32331,-0.79065 -1.58803,-1.22958 -1.3236,-1.6679 -2.0312,-4.38894 -2.0312,-8.16368 l 0,-4.12714 -3.08741,0 0,4.12714 c 0,9.1296 3.35244,13.16769 10.32339,13.16769 6.44151,0 10.32583,-4.65307 10.32583,-12.72925 0,-4.30145 -1.7649,-7.28563 -3.88266,-9.2169 -2.11775,-1.93126 -4.58856,-2.80969 -6.08864,-3.42418 l -1.50185,-0.70296 c -1.67656,-0.70227 -4.49895,-1.93048 -6.88143,-4.21288 -2.47072,-2.2824 -4.41199,-5.70482 -4.41199,-10.70854 0,-8.86625 4.41091,-15.36231 12.44074,-15.36231 8.20631,0 12.35457,5.09151 12.35457,15.36231 l 0,4.12469 3.17604,0 0,-4.12469 c 0,-5.706 -1.23507,-10.1842 -3.79402,-13.43223 -1.85304,-2.37018 -5.38332,-5.09219 -11.73659,-5.09219 z m 34.8971,0 c -3.17664,0 -5.55813,0.70237 -7.49941,1.66801 -1.94128,1.05341 -3.26408,2.37116 -4.23472,3.51236 -2.47072,3.07246 -3.70785,7.54987 -3.70785,13.25587 l 0,27.82703 c 0,5.79378 1.23713,10.1834 3.70785,13.25586 0.97064,1.1412 2.29344,2.45856 4.23472,3.42419 1.94128,1.05342 4.32277,1.75374 7.49941,1.75374 6.35327,0 9.79492,-2.80774 11.64796,-5.17793 2.55895,-3.16024 3.79402,-7.54986 3.79402,-13.25586 l 0,-4.21288 -3.17604,0 0,4.21288 c 0,6.32049 -1.67498,10.27011 -4.05746,12.46472 -2.38248,2.19462 -5.3848,2.89759 -8.20848,2.89759 -2.82368,0 -5.9097,-0.70297 -8.29219,-2.89759 -2.38248,-2.19461 -4.05992,-6.14423 -4.05992,-12.46472 l 0,-27.82703 c 0,-4.91593 1.0579,-8.69018 3.08741,-11.41151 2.11776,-2.54575 5.20567,-3.86262 9.2647,-3.86262 8.11807,0 12.26594,5.1789 12.26594,15.27413 l 0,4.1247 3.17604,0 0,-4.1247 c 0,-5.706 -1.23507,-10.09563 -3.79402,-13.25587 -1.85304,-2.37019 -5.29469,-5.18037 -11.64796,-5.18037 z m 20.57782,0 0,64.69706 26.91514,0 0,-3.07148 -23.82527,0 0,-58.46347 23.82527,0 0,-3.16211 -26.91514,0 z m 70.31617,0 0,3.16211 30.53189,0 0,4.30106 -23.73663,50.29978 0,1.75618 28.14862,0 0,-3.07392 -24.17734,0 22.76659,-48.45543 0,-7.98978 -33.53313,0 z m 56.30217,0 -15.0899,64.69706 3.17604,0 14.20603,-61.00834 1.94257,0 14.20603,61.00834 3.26467,0 -15.08744,-64.69706 -6.618,0 z m -287.8285,5.18037 c -6.794472,0 -10.234742,4.38963 -10.234742,13.25587 l 0,27.82703 c 0,8.86625 3.44027,13.25586 10.234742,13.25586 6.79447,0 10.2372,-4.38961 10.2372,-13.25586 l 0,-4.21288 -3.17604,0 0,4.21288 c 0,3.77474 -0.61895,6.49576 -1.94255,8.16368 -0.70592,0.96562 -1.94197,2.01826 -5.11861,2.01826 -3.176632,0 -4.498462,-1.05263 -5.116132,-2.01826 -1.3236,-1.66792 -2.0312,-4.38894 -2.0312,-8.16368 l 0,-27.82703 c 0,-5.00372 1.14909,-7.63766 2.64916,-8.86664 1.500082,-1.22899 3.174572,-1.22956 4.498172,-1.22956 1.14712,0 3.00055,5.7e-4 4.50063,1.22956 1.41184,1.22898 2.56053,3.86292 2.56053,8.86664 l 0,4.1247 3.17604,0 0,-4.1247 c 0,-8.86624 -3.44273,-13.25587 -10.2372,-13.25587 z m 20.57782,0 0,59.51669 3.08988,0 0,-59.51669 -3.08988,0 z m 5.20724,0 0,26.59746 8.29465,0 c 8.02983,0 11.29588,-3.86085 11.29588,-13.34159 0,-9.39295 -3.26605,-13.25587 -11.29588,-13.25587 l -8.29465,0 z m 36.88152,0 0,26.15903 21.7079,0 0,-3.15966 -18.62049,0 0,-19.8397 18.62049,0 0,-3.15967 -21.7079,0 z m 43.06866,0 c -3.79432,0 -6.35219,1.84347 -8.02875,4.38923 -1.67656,2.54575 -2.29464,5.88236 -2.29464,8.95482 0,4.30144 1.67627,7.19784 3.79403,9.21689 2.11775,2.10683 4.58935,3.16035 6.26591,3.86262 l 1.41076,0.61478 c 1.50007,0.6145 4.32455,1.75374 6.79526,3.94835 2.38248,2.19462 4.412,5.6191 4.412,10.62282 0,4.21366 -1.0579,7.90071 -3.08742,10.44647 -2.11775,2.89689 -5.3846,4.38923 -9.26715,4.38923 -8.20631,0 -12.44074,-5.17891 -12.44074,-15.27414 l 0,-4.12714 -3.08989,0 0,4.12714 c 0,11.58757 5.20656,18.34562 15.53063,18.34562 9.97111,0 15.53061,-7.98752 15.53061,-17.90718 0,-5.26708 -1.85282,-9.56734 -5.47068,-12.90316 -2.82368,-2.72132 -6.00011,-3.86331 -7.67667,-4.56559 l -1.41076,-0.61478 c -2.11775,-0.79006 -4.14786,-1.93224 -5.64794,-3.51236 -1.50008,-1.58012 -2.56054,-3.59711 -2.56054,-6.66957 0,-1.1412 0.0885,-3.77484 1.14732,-6.05724 0.97064,-2.2824 2.6473,-4.12716 6.08866,-4.12714 1.14712,0 3.00055,5.7e-4 4.50062,1.22956 1.50008,1.22898 2.64671,3.95109 2.64671,8.95482 l 0,4.12469 3.1785,0 0,-4.12469 c 0,-9.1296 -3.53136,-13.34405 -10.32583,-13.34405 z m 34.8971,0 c -6.79447,0 -10.23474,4.38963 -10.23474,13.25587 l 0,27.82703 c 0,8.86625 3.44027,13.25586 10.23474,13.25586 6.79447,0 10.2372,-4.38961 10.2372,-13.25586 l 0,-4.21288 -3.17604,0 0,4.21288 c 0,3.77474 -0.61895,6.49576 -1.94255,8.16368 -0.70592,0.96562 -1.94197,2.01826 -5.11861,2.01826 -3.17664,0 -4.49846,-1.05263 -5.11614,-2.01826 -1.32359,-1.66792 -2.03119,-4.38894 -2.03119,-8.16368 l 0,-27.82703 c 0,-5.00372 1.14908,-7.63766 2.64916,-8.86664 1.50008,-1.22899 3.17457,-1.22956 4.49817,-1.22956 1.14712,0 3.00055,5.7e-4 4.50063,1.22956 1.41183,1.22898 2.56053,3.86292 2.56053,8.86664 l 0,4.1247 3.17604,0 0,-4.1247 c 0,-8.86624 -3.44273,-13.25587 -10.2372,-13.25587 z m 25.78506,0 0,26.15903 21.7079,0 0,-3.15966 -18.62049,0 0,-19.8397 18.62049,0 0,-3.15967 -21.7079,0 z m 65.10893,0 0,3.15967 24.1798,0 -22.76659,48.28153 0,8.07549 33.53067,0 0,-3.07148 -30.44325,0 0,-3.86263 24.00254,-50.91458 -0.0886,0 0,-1.668 -28.41452,0 z m -202.65385,3.15967 5.20723,0 c 2.73544,0 4.76545,0.35162 6.17729,1.75618 1.3236,1.49234 2.02872,4.03858 2.02872,8.34002 0,3.86253 -0.61649,6.58394 -1.94009,8.25184 -0.26472,0.26336 -0.79387,0.70042 -1.58803,1.22713 -0.8824,0.52671 -2.47189,0.79114 -4.67789,0.79114 l -5.20723,0 0,-20.36631 z m 262.2207,0.43842 -7.67667,32.74532 15.26472,0 -7.58805,-32.74532 z m 0,13.78248 3.70539,15.80074 -7.41323,0 3.70784,-15.80074 z m -228.4266,10.79917 0,26.15902 21.7079,0 0,-3.07392 -18.62049,0 0,-19.92544 18.62049,0 0,-3.15966 -21.7079,0 z m 103.75082,0 0,26.15902 21.7079,0 0,-3.07392 -18.62049,0 0,-19.92544 18.62049,0 0,-3.15966 -21.7079,0 z m -140.63234,0.52661 0,30.81034 3.08742,0 0,-27.65068 5.20723,0 c 5.55912,0 8.29464,2.80793 8.29464,8.51392 l 0,19.13676 3.17606,0 0,-19.13676 c 0,-7.46169 -4.14679,-11.67358 -11.4707,-11.67358 l -8.29465,0 z m 257.18828,9.65533 -4.94133,21.15501 3.26468,0 4.14856,-17.99535 11.29342,0 4.23719,17.99535 3.17604,0 -4.94133,-21.15501 -16.23723,0 z"
       id="text4167"
       inkscape:connector-curvature="0" />
    <text
       xml:space="preserve"
       style="font-style:normal;font-weight:normal;font-size:90px;line-height:125%;font-family:sans-serif;letter-spacing:0px;word-spacing:0px;fill:#000000;fill-opacity:1;stroke:none;stroke-width:1px;stroke-linecap:butt;stroke-linejoin:miter;stroke-opacity:1"
       x="230"
       y="202.3622"
       id="text4211"
       sodipodi:linespacing="125%"><tspan
         sodipodi:role="line"
         id="tspan4213"
         x="230"
         y="202.3622" /></text>
    <text
       xml:space="preserve"
       style="font-style:normal;font-variant:normal;font-weight:500;font-stretch:normal;font-size:40px;line-height:125%;font-family:'Ostrich Sans Rounded';-inkscape-font-specification:'Ostrich Sans Rounded Medium';letter-spacing:0px;word-spacing:0px;fill:#000000;fill-opacity:1;stroke:none;stroke-width:1px;stroke-linecap:butt;stroke-linejoin:miter;stroke-opacity:1"
       x="180"
       y="342.36221"
       id="text4221"
       sodipodi:linespacing="125%"><tspan
         sodipodi:role="line"
         id="tspan4223"
         x="180"
         y="342.36221" /></text>
    <text
       xml:space="preserve"
       style="font-style:normal;font-weight:normal;font-size:80px;line-height:125%;font-family:sans-serif;letter-spacing:0px;word-spacing:0px;fill:#66c782;fill-opacity:0.99607843;stroke:#66c782;stroke-width:1;stroke-linecap:butt;stroke-linejoin:miter;stroke-opacity:0.99607843;stroke-miterlimit:4;stroke-dasharray:none;"
       x="113.79289"
       y="903.05457"
       id="text4225"
       sodipodi:linespacing="125%"><tspan
         sodipodi:role="line"
         id="tspan4227"
         x="113.79289"
         y="903.05457"
         style="font-style:normal;font-variant:normal;font-weight:500;font-stretch:normal;font-size:45px;font-family:'Ostrich Sans Rounded';-inkscape-font-specification:'Ostrich Sans Rounded Medium';fill:#66c782;fill-opacity:0.99607843;stroke-width:1;stroke-miterlimit:4;stroke-dasharray:none;stroke:#66c782;stroke-opacity:0.99607843;">-September 26, 2016-</tspan></text>
  </g>
</svg>
